<?xml version="1.0" encoding="utf-8"?>
<!-- Generator: Adobe Illustrator 18.1.1, SVG Export Plug-In . SVG Version: 6.00 Build 0)  -->
<svg version="1.1" id="Layer_1" xmlns="http://www.w3.org/2000/svg" xmlns:xlink="http://www.w3.org/1999/xlink" x="0px" y="0px"
	 width="219.7px" height="49px" viewBox="0 0 219.7 49" enable-background="new 0 0 219.7 49" xml:space="preserve">
<g>
	<g>
		<g>
			<path fill="#FFFFFF" d="M24.6,3C12.2,3,2.1,13,2.1,25.3c0,12.3,10.1,22.3,22.4,22.3S47,37.6,47,25.3C47,13,36.9,3,24.6,3z
				 M24.6,45.9c-11.3,0-20.4-9.2-20.4-20.4C4.1,14.2,13.3,5,24.6,5C35.8,5,45,14.2,45,25.4C45,36.7,35.8,45.9,24.6,45.9z"/>
			<path fill="#FFFFFF" d="M18.9,35.3c-3.4-1.6-5.7-5.2-5.7-9.3c0-2.2,0.7-4.2,1.8-5.9l7.4,11h4.5l7.4-11c1.1,1.7,1.8,3.7,1.8,5.9
				c0,3.9-2,7.2-5.1,9l1.4,5.4c5.4-2.8,9.1-8.4,9.1-14.9c0-6.1-3.3-11.5-8.2-14.4l-8.6,13.2L16.1,11c-5,2.9-8.3,8.3-8.3,14.5
				c0,6.7,4,12.5,9.7,15.2L18.9,35.3z"/>
		</g>
		<g>
			<polygon fill="#FFFFFF" points="63.9,27.6 58.4,15.9 55.5,15.9 55.5,34.8 58.4,34.8 58.4,22.2 62.8,31.3 64.9,31.3 69.3,22.2 
				69.3,34.8 72.1,34.8 72.1,15.9 69.3,15.9 			"/>
			<path fill="#FFFFFF" d="M82.9,29.5c0,2.1-1.3,3-2.8,3c-1.5,0-2.7-0.9-2.7-3v-8.2h-2.7v8.6c0,1.5,0.3,2.8,1.4,3.8
				c0.8,0.8,1.9,1.2,3.3,1.2c1.4,0,2.6-0.5,3.6-1.5v1.4h2.6V21.3h-2.7V29.5z"/>
			<path fill="#FFFFFF" d="M90.9,30.9v-15h-2.7V31c0,2,1.1,3.7,3.7,3.7h1.7v-2.3h-1.2C91.2,32.5,90.9,31.9,90.9,30.9z"/>
			<path fill="#FFFFFF" d="M100,21.2c-3.4,0-5.7,2.5-5.7,6.9c0,5.1,2.7,6.9,6,6.9c2.4,0,3.7-0.7,5-2.1l-1.7-1.6
				c-1,1-1.7,1.4-3.3,1.4c-2.2,0-3.4-1.5-3.4-3.8h8.7v-1.2C105.7,23.8,103.6,21.2,100,21.2z M97,26.9c0-0.8,0.1-1.2,0.3-1.8
				c0.4-1,1.4-1.7,2.7-1.7c1.3,0,2.2,0.7,2.6,1.7c0.3,0.6,0.3,1,0.4,1.8H97z"/>
			<path fill="#FFFFFF" d="M119,25.5c-0.8-0.7-1.8-1.1-3.5-1.4l-2.1-0.3c-0.9-0.1-1.6-0.4-2.1-0.9c-0.5-0.5-0.7-1.1-0.7-1.7
				c0-1.7,1.2-2.9,3.4-2.9c1.6,0,2.9,0.3,4.1,1.5l1.8-1.8c-1.6-1.5-3.4-2.1-5.9-2.1c-3.9,0-6.3,2.2-6.3,5.5c0,1.5,0.5,2.7,1.4,3.6
				c0.8,0.8,2,1.3,3.6,1.5l2.2,0.3c1.1,0.2,1.6,0.3,2.1,0.8c0.5,0.4,0.7,1.1,0.7,2c0,1.8-1.4,2.9-3.9,2.9c-1.9,0-3.4-0.4-4.8-1.8
				l-1.9,1.9c1.8,1.8,3.8,2.5,6.7,2.5c3.9,0,6.8-2.1,6.8-5.5C120.6,27.8,120.1,26.4,119,25.5z"/>
			<path fill="#FFFFFF" d="M127.7,21.2c-1.8,0-3.1,0.7-4,1.6c-1.3,1.3-1.6,3-1.6,5.3c0,2.3,0.3,4,1.6,5.3c0.9,0.9,2.2,1.6,4,1.6
				c1.8,0,3.2-0.7,4-1.6c1.3-1.3,1.6-3,1.6-5.3c0-2.2-0.3-3.9-1.6-5.3C130.8,21.9,129.5,21.2,127.7,21.2z M129.7,31.7
				c-0.5,0.5-1.2,0.8-2,0.8c-0.8,0-1.5-0.3-2-0.8c-0.8-0.8-0.9-2.2-0.9-3.7c0-1.5,0.1-2.9,0.9-3.7c0.5-0.5,1.2-0.8,2-0.8
				c0.8,0,1.5,0.3,2,0.8c0.8,0.8,0.9,2.2,0.9,3.7C130.6,29.5,130.5,30.9,129.7,31.7z"/>
			<path fill="#FFFFFF" d="M136,19.5v2.1h-1.5v2.1h1.5v11.1h2.7V23.6h2.7v-2.1h-2.7v-1.9c0-1,0.5-1.6,1.5-1.6h1.2v-2.3h-1.7
				C137.2,15.8,136,17.6,136,19.5z"/>
			<path fill="#FFFFFF" d="M147.3,17.5h-2.7v4.1h-1.5v2.1h1.5V31c0,1.9,1.2,3.7,3.7,3.7h1.6v-2.3h-1.1c-1,0-1.5-0.6-1.5-1.6v-7.3
				h2.6v-2.1h-2.6V17.5z"/>
			<path fill="#FFFFFF" d="M153.3,19.6c-0.1-0.2-0.2-0.3-0.3-0.5c-0.1-0.1-0.3-0.2-0.5-0.3c-0.2-0.1-0.4-0.1-0.6-0.1
				c-0.2,0-0.4,0-0.6,0.1c-0.2,0.1-0.3,0.2-0.5,0.3c-0.1,0.1-0.2,0.3-0.3,0.5c-0.1,0.2-0.1,0.4-0.1,0.6c0,0.2,0,0.4,0.1,0.6
				c0.1,0.2,0.2,0.3,0.3,0.5c0.1,0.1,0.3,0.2,0.5,0.3c0.2,0.1,0.4,0.1,0.6,0.1c0.2,0,0.4,0,0.6-0.1c0.2-0.1,0.3-0.2,0.5-0.3
				c0.1-0.1,0.2-0.3,0.3-0.5c0.1-0.2,0.1-0.4,0.1-0.6C153.4,19.9,153.3,19.7,153.3,19.6z M153,20.6c-0.1,0.2-0.1,0.3-0.3,0.4
				c-0.1,0.1-0.2,0.2-0.4,0.3c-0.1,0.1-0.3,0.1-0.5,0.1c-0.2,0-0.3,0-0.5-0.1c-0.1-0.1-0.3-0.2-0.4-0.3c-0.1-0.1-0.2-0.2-0.3-0.4
				c-0.1-0.2-0.1-0.3-0.1-0.5c0-0.2,0-0.3,0.1-0.5c0.1-0.1,0.1-0.3,0.3-0.4c0.1-0.1,0.2-0.2,0.4-0.3c0.1-0.1,0.3-0.1,0.5-0.1
				c0.2,0,0.3,0,0.5,0.1c0.1,0.1,0.3,0.1,0.4,0.3c0.1,0.1,0.2,0.2,0.3,0.4c0.1,0.1,0.1,0.3,0.1,0.5C153.1,20.3,153.1,20.5,153,20.6z
				"/>
			<path fill="#FFFFFF" d="M152.5,20.1c0.1-0.1,0.1-0.2,0.1-0.3c0-0.2,0-0.3-0.1-0.4c-0.1-0.1-0.2-0.1-0.4-0.1h-0.7V21h0.3v-0.7h0.3
				l0.5,0.7h0.3l-0.5-0.7C152.3,20.2,152.4,20.2,152.5,20.1z M151.9,20.1h-0.3v-0.5h0.3c0,0,0.1,0,0.1,0c0,0,0.1,0,0.1,0
				c0,0,0.1,0,0.1,0.1c0,0,0,0.1,0,0.1c0,0.1,0,0.1,0,0.2c0,0-0.1,0.1-0.1,0.1c0,0-0.1,0-0.1,0C152,20.1,151.9,20.1,151.9,20.1z"/>
		</g>
	</g>
	<g>
		<path fill="#989899" d="M157.6,37.8h-2.6l7.6-24.8h2.6L157.6,37.8z"/>
		<path fill="#989899" d="M164,37.8h-2.6l7.6-24.8h2.6L164,37.8z"/>
	</g>
	<path fill="#989899" d="M188.7,27.2c0,0.7-0.1,1.4-0.2,2.1c-0.1,0.7-0.3,1.3-0.6,1.9c-0.3,0.6-0.7,1.2-1.2,1.7
		c-0.6,0.6-1.3,1.1-2.2,1.3c-0.8,0.3-1.7,0.4-2.7,0.4h-6.7V15.8h6.7c1,0,1.9,0.1,2.7,0.4c0.8,0.3,1.6,0.7,2.2,1.3
		c0.5,0.5,0.9,1.1,1.2,1.7c0.3,0.6,0.5,1.2,0.6,1.9c0.1,0.6,0.2,1.3,0.2,2c0,0.7,0,1.4,0,2C188.7,25.8,188.7,26.5,188.7,27.2z
		 M185.7,21.8c-0.1-0.9-0.4-1.6-0.9-2.2c-0.8-0.9-1.9-1.3-3.2-1.3h-3.5v13.8h3.5c1.4,0,2.4-0.4,3.2-1.3c0.5-0.5,0.8-1.3,0.9-2.3
		c0.1-1,0.1-2.1,0.1-3.4C185.8,23.8,185.8,22.7,185.7,21.8z"/>
	<path fill="#989899" d="M193.2,28.8c0,1.2,0.3,2.1,0.9,2.8c0.6,0.7,1.4,1,2.6,1c0.8,0,1.4-0.1,1.8-0.3c0.5-0.2,0.9-0.6,1.4-1.1
		l1.7,1.6c-0.4,0.4-0.7,0.7-1.1,0.9c-0.3,0.3-0.7,0.5-1.1,0.7c-0.4,0.2-0.8,0.3-1.3,0.4c-0.5,0.1-1,0.1-1.6,0.1
		c-0.9,0-1.6-0.1-2.4-0.4c-0.7-0.2-1.4-0.6-1.9-1.2c-0.5-0.5-1-1.3-1.3-2.1c-0.3-0.9-0.5-2-0.5-3.2c0-2.2,0.5-3.9,1.6-5.1
		c1-1.2,2.4-1.8,4.2-1.8c0.9,0,1.7,0.2,2.4,0.5c0.7,0.3,1.3,0.8,1.8,1.3c0.5,0.6,0.9,1.3,1.1,2c0.3,0.8,0.4,1.7,0.4,2.6v1.2H193.2z
		 M199.2,25.9c0-0.3-0.1-0.5-0.3-0.8c-0.2-0.5-0.6-0.9-1-1.2c-0.5-0.3-1-0.5-1.6-0.5c-0.6,0-1.2,0.2-1.7,0.5c-0.5,0.3-0.8,0.7-1,1.2
		c-0.1,0.3-0.2,0.6-0.3,0.8c0,0.3-0.1,0.6-0.1,1h6.1C199.3,26.5,199.2,26.1,199.2,25.9z"/>
	<path fill="#989899" d="M209.4,34.7h-2.2l-5-13.5h2.9l3.2,9.5l3.2-9.5h2.9L209.4,34.7z"/>
</g>
</svg>
